<?xml version="1.0" standalone="no"?><!DOCTYPE svg PUBLIC "-//W3C//DTD SVG 1.1//EN" "http://www.w3.org/Graphics/SVG/1.1/DTD/svg11.dtd"><svg t="1728295178153" class="icon" viewBox="0 0 1024 1024" version="1.1" xmlns="http://www.w3.org/2000/svg" p-id="4421" data-darkreader-inline-fill="" xmlns:xlink="http://www.w3.org/1999/xlink" width="200" height="200"><path d="M896 583.59v221.09c0 50.13-39 90.91-86.84 90.91H214.84c-47.84 0-86.84-40.78-86.84-90.91V583.59a32 32 0 0 1 64 0v221.09c0 14.84 10.25 26.91 22.84 26.91h594.32c12.59 0 22.84-12.07 22.84-26.91V583.59a32 32 0 0 1 64 0zM301.11 403.47a31.91 31.91 0 0 0 22.63-9.38l156.33-156.42 0.09 400.33a32 32 0 0 0 32 32 32 32 0 0 0 32-32l-0.09-400.29 156.18 156.37a32 32 0 0 0 45.28-45.23L534.69 137.79c-0.37-0.38-0.76-0.74-1.15-1.1l-0.47-0.41c-0.22-0.19-0.44-0.39-0.67-0.57l-0.1-0.09c-0.14-0.12-0.3-0.23-0.44-0.34l-0.19-0.15-0.49-0.38-0.16-0.12-0.4-0.28-0.28-0.19-0.43-0.3-0.2-0.14-0.37-0.23-0.32-0.2-0.42-0.27-0.24-0.14-0.28-0.16-0.37-0.21-0.48-0.27-0.25-0.13-0.23-0.12-0.38-0.19-0.55-0.27-0.25-0.12-0.14-0.06-0.41-0.18-0.65-0.29-0.23-0.09h-0.09l-0.4-0.15-0.77-0.29-0.2-0.07-0.43-0.14c-0.29-0.09-0.57-0.19-0.86-0.27l-0.59-0.17-0.92-0.25-0.57-0.13-1-0.21-0.59-0.11-0.94-0.16-0.7-0.08-0.84-0.11-1-0.07h-0.57a28.47 28.47 0 0 0-3.2 0h-0.62l-0.94 0.07-0.83 0.1-0.71 0.09-0.92 0.16-0.61 0.11-0.95 0.2-0.45 0.1H504.32c-0.31 0.07-0.62 0.16-0.92 0.24l-0.45 0.13h-0.15l-0.85 0.28-0.48 0.15-0.17 0.07-0.76 0.29-0.52 0.19-0.21 0.09-0.65 0.29-0.57 0.24-0.24 0.12-0.55 0.27-0.62 0.31-0.24 0.13-0.47 0.27c-0.22 0.12-0.45 0.24-0.66 0.37l-0.24 0.14-0.43 0.27-0.68 0.43-0.21 0.14-0.42 0.29-0.68 0.48-0.17 0.13-0.46 0.36-0.64 0.49-0.11 0.1c-0.2 0.16-0.39 0.33-0.58 0.5l-0.55 0.46a0.12 0.12 0 0 1-0.05 0.05c-0.32 0.29-0.62 0.58-0.93 0.88l-0.2 0.2-210.99 211.07a32 32 0 0 0 22.64 54.63z" fill="#969799" p-id="4422" data-darkreader-inline-fill="" style="--darkreader-inline-fill: #52595d;"></path></svg>