<?xml version="1.0" standalone="no"?><!DOCTYPE svg PUBLIC "-//W3C//DTD SVG 1.1//EN" "http://www.w3.org/Graphics/SVG/1.1/DTD/svg11.dtd"><svg t="1727691183596" class="icon" viewBox="0 0 1024 1024" version="1.1" xmlns="http://www.w3.org/2000/svg" p-id="2624" data-darkreader-inline-fill="" xmlns:xlink="http://www.w3.org/1999/xlink" width="200" height="200"><path d="M763.392 543.744h-157.184V386.048a31.744 31.744 0 1 0-62.976 0v157.696H385.536a31.744 31.744 0 0 0 0 62.976h157.696v157.696a31.744 31.744 0 0 0 62.976 0v-157.696h157.696a31.744 31.744 0 0 0 0-62.976z" fill="#969799" p-id="2625" data-darkreader-inline-fill="" style="--darkreader-inline-fill: #52595d;"></path><path d="M802.816 240.128H348.16a113.664 113.664 0 0 0-113.664 113.664v454.144A113.664 113.664 0 0 0 348.16 921.6h454.144a113.664 113.664 0 0 0 113.664-113.664V353.792a113.664 113.664 0 0 0-113.152-113.664zM870.4 807.936a68.096 68.096 0 0 1-68.096 68.096H348.16a68.096 68.096 0 0 1-68.096-68.096V353.792A68.096 68.096 0 0 1 348.16 285.696h454.144A68.096 68.096 0 0 1 870.4 353.792z" fill="#969799" p-id="2626" data-darkreader-inline-fill="" style="--darkreader-inline-fill: #52595d;"></path><path d="M699.904 162.816a25.6 25.6 0 0 0 0-51.2H245.248A139.264 139.264 0 0 0 106.496 250.88v454.144a25.6 25.6 0 0 0 51.2 0V250.88a88.064 88.064 0 0 1 87.552-88.064z" fill="#969799" p-id="2627" data-darkreader-inline-fill="" style="--darkreader-inline-fill: #52595d;"></path></svg>